ffmpeg started on 2025-05-12 at 14:01:45
Report written to "D:\Convert\FFMetrics\reports\ssim_report-6.txt"
Log level: 32
Command line:
ffmpeg -hide_banner -nostdin -i "G:\\\xc0\xed\xe8\xec\xe5\\\xce\xed\xe3\xee\xe8\xed\xe3\xe8\\!_35_\xcb\xe5\xf2\xee_2024\\DreamCast\\\xc2\xe8\xf2\xf3\xe1\xe5\xf0 - \xdf \xf1\xf2\xe0\xeb\xe0 \xef\xee\xef\xf3\xeb\xff\xf0\xed\xee\xe9 \xef\xee\xf1\xeb\xe5 \xf2\xee\xe3\xee, \xea\xe0\xea \xe7\xe0\xe1\xfb\xeb\xe0 \xe2\xfb\xea\xeb\xfe\xf7\xe8\xf2\xfc \xf1\xf2\xf0\xe8\xec\\[DC] Vden - 01_Telegram_HEVC.mkv" -i "G:\\\xc0\xed\xe8\xec\xe5\\\xce\xed\xe3\xee\xe8\xed\xe3\xe8\\!_35_\xcb\xe5\xf2\xee_2024\\DreamCast\\\xc2\xe8\xf2\xf3\xe1\xe5\xf0 - \xdf \xf1\xf2\xe0\xeb\xe0 \xef\xee\xef\xf3\xeb\xff\xf0\xed\xee\xe9 \xef\xee\xf1\xeb\xe5 \xf2\xee\xe3\xee, \xea\xe0\xea \xe7\xe0\xe1\xfb\xeb\xe0 \xe2\xfb\xea\xeb\xfe\xf7\xe8\xf2\xfc \xf1\xf2\xf0\xe8\xec\\[DC] Vden - 01_Telegram.mp4" -lavfi "[0:v]settb=AVTB,setpts=PTS-STARTPTS,format=pix_fmts=yuv420p10,fps=24000/1001,scale=1920:1080:flags=bicubic[main];[1:v]settb=AVTB,setpts=PTS-STARTPTS,format=pix_fmts=yuv420p,fps=24000/1001,scale=1920:1080:flags=bicubic[ref];[main][ref]ssim=eof_action=endall:stats_file='D\\:/Convert/FFMetrics/logs/ssim_logfile-6.txt'" -f null -
Input #0, matroska,webm, from 'G:\Аниме\Онгоинги\!_35_Лето_2024\DreamCast\Витубер - Я стала популярной после того, как забыла выключить стрим\[DC] Vden - 01_Telegram_HEVC.mkv':
  Metadata:
    COMPATIBLE_BRANDS: isomiso2avc1mp41
    MAJOR_BRAND     : isom
    MINOR_VERSION   : 512
    ENCODER         : Lavf61.7.100
  Duration: 00:23:47.76, start: -0.021000, bitrate: 1265 kb/s
  Stream #0:0: Video: hevc (Main 10), yuv420p10le(tv, bt709, progressive), 1920x1080 [SAR 1:1 DAR 16:9], 23.98 fps, 23.98 tbr, 1k tbn (default)
      Metadata:
        HANDLER_NAME    : VideoHandler
        VENDOR_ID       : [0][0][0][0]
        ENCODER         : Lavc61.19.100 libx265
        BPS             : 1069169
        DURATION        : 00:23:46.591708333
        NUMBER_OF_FRAMES: 34204
        NUMBER_OF_BYTES : 190658477
        _STATISTICS_WRITING_APP: mkvpropedit v66.0.0 ('Josie') 64-bit
        _STATISTICS_WRITING_DATE_UTC: 2025-05-07 08:08:07
        _STATISTICS_TAGS: BPS DURATION NUMBER_OF_FRAMES NUMBER_OF_BYTES
  Stream #0:1: Audio: aac (LC), 48000 Hz, stereo, fltp (default)
      Metadata:
        HANDLER_NAME    : SoundHandler
        VENDOR_ID       : [0][0][0][0]
        ENCODER         : Lavc61.19.100 aac
        BPS             : 192709
        DURATION        : 00:23:47.754000000
        NUMBER_OF_FRAMES: 66927
        NUMBER_OF_BYTES : 34392756
        _STATISTICS_WRITING_APP: mkvpropedit v66.0.0 ('Josie') 64-bit
        _STATISTICS_WRITING_DATE_UTC: 2025-05-07 08:08:07
        _STATISTICS_TAGS: BPS DURATION NUMBER_OF_FRAMES NUMBER_OF_BYTES
Input #1, mov,mp4,m4a,3gp,3g2,mj2, from 'G:\Аниме\Онгоинги\!_35_Лето_2024\DreamCast\Витубер - Я стала популярной после того, как забыла выключить стрим\[DC] Vden - 01_Telegram.mp4':
  Metadata:
    major_brand     : isom
    minor_version   : 512
    compatible_brands: isomiso2avc1mp41
    encoder         : Lavf61.1.100
  Duration: 00:23:47.72, start: 0.000000, bitrate: 3768 kb/s
  Stream #1:0[0x1](und): Video: h264 (High) (avc1 / 0x31637661), yuv420p(tv, bt709, progressive), 1920x1080 [SAR 1:1 DAR 16:9], 3623 kb/s, 23.98 fps, 23.98 tbr, 24k tbn (default)
      Metadata:
        handler_name    : VideoHandler
        vendor_id       : [0][0][0][0]
        encoder         : Lavc61.3.100 h264_qsv
  Stream #1:1[0x2](und): Audio: aac (HE-AACv2) (mp4a / 0x6134706D), 48000 Hz, stereo, fltp, 144 kb/s (default)
      Metadata:
        handler_name    : SoundHandler
        vendor_id       : [0][0][0][0]
Stream mapping:
  Stream #0:0 (hevc) -> settb:default
  Stream #1:0 (h264) -> settb:default
  ssim:default -> Stream #0:0 (wrapped_avframe)
  Stream #0:1 -> #0:1 (aac (native) -> pcm_s16le (native))
Output #0, null, to 'pipe:':
  Metadata:
    COMPATIBLE_BRANDS: isomiso2avc1mp41
    MAJOR_BRAND     : isom
    MINOR_VERSION   : 512
    encoder         : Lavf61.7.100
  Stream #0:0: Video: wrapped_avframe, yuv420p10le(tv, bt709, progressive), 1920x1080 [SAR 1:1 DAR 16:9], q=2-31, 200 kb/s, 23.98 fps, 23.98 tbn
      Metadata:
        encoder         : Lavc61.19.100 wrapped_avframe
  Stream #0:1: Audio: pcm_s16le, 48000 Hz, stereo, s16, 1536 kb/s (default)
      Metadata:
        HANDLER_NAME    : SoundHandler
        VENDOR_ID       : [0][0][0][0]
        _STATISTICS_TAGS: BPS DURATION NUMBER_OF_FRAMES NUMBER_OF_BYTES
        BPS             : 192709
        DURATION        : 00:23:47.754000000
        NUMBER_OF_FRAMES: 66927
        NUMBER_OF_BYTES : 34392756
        _STATISTICS_WRITING_APP: mkvpropedit v66.0.0 ('Josie') 64-bit
        _STATISTICS_WRITING_DATE_UTC: 2025-05-07 08:08:07
        encoder         : Lavc61.19.100 pcm_s16le
frame=  155 fps=0.0 q=-0.0 size=N/A time=00:00:06.46 bitrate=N/A speed=12.6x    frame=  367 fps=354 q=-0.0 size=N/A time=00:00:15.30 bitrate=N/A speed=14.8x    frame=  597 fps=387 q=-0.0 size=N/A time=00:00:24.89 bitrate=N/A speed=16.1x    frame=  817 fps=395 q=-0.0 size=N/A time=00:00:34.07 bitrate=N/A speed=16.5x    frame= 1055 fps=410 q=-0.0 size=N/A time=00:00:44.00 bitrate=N/A speed=17.1x    frame= 1286 fps=415 q=-0.0 size=N/A time=00:00:53.63 bitrate=N/A speed=17.3x    frame= 1482 fps=411 q=-0.0 size=N/A time=00:01:01.81 bitrate=N/A speed=17.1x    frame= 1691 fps=410 q=-0.0 size=N/A time=00:01:10.52 bitrate=N/A speed=17.1x    frame= 1892 fps=408 q=-0.0 size=N/A time=00:01:18.91 bitrate=N/A speed=  17x    frame= 2091 fps=405 q=-0.0 size=N/A time=00:01:27.25 bitrate=N/A speed=16.9x    frame= 2294 fps=405 q=-0.0 size=N/A time=00:01:35.67 bitrate=N/A speed=16.9x    frame= 2488 fps=402 q=-0.0 size=N/A time=00:01:43.77 bitrate=N/A speed=16.8x    frame= 2669 fps=399 q=-0.0 size=N/A time=00:01:51.31 bitrate=N/A speed=16.6x    frame= 2838 fps=393 q=-0.0 size=N/A time=00:01:58.36 bitrate=N/A speed=16.4x    frame= 2998 fps=388 q=-0.0 size=N/A time=00:02:05.04 bitrate=N/A speed=16.2x    frame= 3143 fps=381 q=-0.0 size=N/A time=00:02:11.08 bitrate=N/A speed=15.9x    frame= 3341 fps=381 q=-0.0 size=N/A time=00:02:19.34 bitrate=N/A speed=15.9x    frame= 3551 fps=383 q=-0.0 size=N/A time=00:02:28.14 bitrate=N/A speed=  16x    frame= 3799 fps=388 q=-0.0 size=N/A time=00:02:38.44 bitrate=N/A speed=16.2x    frame= 4056 fps=393 q=-0.0 size=N/A time=00:02:49.16 bitrate=N/A speed=16.4x    frame= 4318 fps=399 q=-0.0 size=N/A time=00:03:00.09 bitrate=N/A speed=16.6x    frame= 4574 fps=403 q=-0.0 size=N/A time=00:03:10.77 bitrate=N/A speed=16.8x    frame= 4776 fps=403 q=-0.0 size=N/A time=00:03:19.19 bitrate=N/A speed=16.8x    frame= 4972 fps=402 q=-0.0 size=N/A time=00:03:27.37 bitrate=N/A speed=16.7x    frame= 5148 fps=399 q=-0.0 size=N/A time=00:03:34.71 bitrate=N/A speed=16.7x    frame= 5380 fps=401 q=-0.0 size=N/A time=00:03:44.39 bitrate=N/A speed=16.7x    frame= 5574 fps=401 q=-0.0 size=N/A time=00:03:52.48 bitrate=N/A speed=16.7x    frame= 5821 fps=403 q=-0.0 size=N/A time=00:04:02.78 bitrate=N/A speed=16.8x    frame= 6056 fps=405 q=-0.0 size=N/A time=00:04:12.58 bitrate=N/A speed=16.9x    frame= 6276 fps=406 q=-0.0 size=N/A time=00:04:21.76 bitrate=N/A speed=16.9x    frame= 6493 fps=406 q=-0.0 size=N/A time=00:04:30.81 bitrate=N/A speed=16.9x    frame= 6728 fps=408 q=-0.0 size=N/A time=00:04:40.61 bitrate=N/A speed=  17x    frame= 6968 fps=409 q=-0.0 size=N/A time=00:04:50.62 bitrate=N/A speed=17.1x    frame= 7185 fps=410 q=-0.0 size=N/A time=00:04:59.67 bitrate=N/A speed=17.1x    frame= 7428 fps=411 q=-0.0 size=N/A time=00:05:09.80 bitrate=N/A speed=17.2x    frame= 7671 fps=413 q=-0.0 size=N/A time=00:05:19.94 bitrate=N/A speed=17.2x    frame= 7904 fps=414 q=-0.0 size=N/A time=00:05:29.66 bitrate=N/A speed=17.3x    frame= 8136 fps=415 q=-0.0 size=N/A time=00:05:39.33 bitrate=N/A speed=17.3x    frame= 8377 fps=417 q=-0.0 size=N/A time=00:05:49.39 bitrate=N/A speed=17.4x    frame= 8623 fps=418 q=-0.0 size=N/A time=00:05:59.65 bitrate=N/A speed=17.4x    frame= 8870 fps=419 q=-0.0 size=N/A time=00:06:09.95 bitrate=N/A speed=17.5x    frame= 9073 fps=419 q=-0.0 size=N/A time=00:06:18.41 bitrate=N/A speed=17.5x    frame= 9295 fps=419 q=-0.0 size=N/A time=00:06:27.67 bitrate=N/A speed=17.5x    frame= 9517 fps=420 q=-0.0 size=N/A time=00:06:36.93 bitrate=N/A speed=17.5x    frame= 9734 fps=419 q=-0.0 size=N/A time=00:06:45.98 bitrate=N/A speed=17.5x    frame= 9977 fps=420 q=-0.0 size=N/A time=00:06:56.12 bitrate=N/A speed=17.5x    frame=10235 fps=422 q=-0.0 size=N/A time=00:07:06.88 bitrate=N/A speed=17.6x    frame=10503 fps=424 q=-0.0 size=N/A time=00:07:18.06 bitrate=N/A speed=17.7x    frame=10751 fps=425 q=-0.0 size=N/A time=00:07:28.40 bitrate=N/A speed=17.7x    frame=10990 fps=426 q=-0.0 size=N/A time=00:07:38.37 bitrate=N/A speed=17.8x    frame=11243 fps=427 q=-0.0 size=N/A time=00:07:48.92 bitrate=N/A speed=17.8x    frame=11510 fps=429 q=-0.0 size=N/A time=00:08:00.06 bitrate=N/A speed=17.9x    frame=11776 fps=431 q=-0.0 size=N/A time=00:08:11.15 bitrate=N/A speed=  18x    frame=12039 fps=432 q=-0.0 size=N/A time=00:08:22.12 bitrate=N/A speed=  18x    frame=12312 fps=434 q=-0.0 size=N/A time=00:08:33.51 bitrate=N/A speed=18.1x    frame=12559 fps=435 q=-0.0 size=N/A time=00:08:43.81 bitrate=N/A speed=18.1x    frame=12810 fps=436 q=-0.0 size=N/A time=00:08:54.28 bitrate=N/A speed=18.2x    frame=13079 fps=437 q=-0.0 size=N/A time=00:09:05.50 bitrate=N/A speed=18.2x    frame=13329 fps=438 q=-0.0 size=N/A time=00:09:15.93 bitrate=N/A speed=18.3x    frame=13583 fps=439 q=-0.0 size=N/A time=00:09:26.52 bitrate=N/A speed=18.3x    frame=13833 fps=440 q=-0.0 size=N/A time=00:09:36.95 bitrate=N/A speed=18.3x    frame=14084 fps=440 q=-0.0 size=N/A time=00:09:47.42 bitrate=N/A speed=18.4x    frame=14332 fps=441 q=-0.0 size=N/A time=00:09:57.76 bitrate=N/A speed=18.4x    frame=14572 fps=441 q=-0.0 size=N/A time=00:10:07.77 bitrate=N/A speed=18.4x    frame=14789 fps=441 q=-0.0 size=N/A time=00:10:16.82 bitrate=N/A speed=18.4x    frame=15049 fps=442 q=-0.0 size=N/A time=00:10:27.66 bitrate=N/A speed=18.4x    frame=15305 fps=443 q=-0.0 size=N/A time=00:10:38.34 bitrate=N/A speed=18.5x    frame=15580 fps=444 q=-0.0 size=N/A time=00:10:49.81 bitrate=N/A speed=18.5x    frame=15835 fps=445 q=-0.0 size=N/A time=00:11:00.45 bitrate=N/A speed=18.6x    frame=16107 fps=446 q=-0.0 size=N/A time=00:11:11.79 bitrate=N/A speed=18.6x    frame=16373 fps=447 q=-0.0 size=N/A time=00:11:22.89 bitrate=N/A speed=18.6x    frame=16620 fps=447 q=-0.0 size=N/A time=00:11:33.19 bitrate=N/A speed=18.7x    frame=16854 fps=447 q=-0.0 size=N/A time=00:11:42.95 bitrate=N/A speed=18.7x    frame=17117 fps=448 q=-0.0 size=N/A time=00:11:53.92 bitrate=N/A speed=18.7x    frame=17363 fps=449 q=-0.0 size=N/A time=00:12:04.18 bitrate=N/A speed=18.7x    frame=17610 fps=449 q=-0.0 size=N/A time=00:12:14.48 bitrate=N/A speed=18.7x    frame=17873 fps=450 q=-0.0 size=N/A time=00:12:25.45 bitrate=N/A speed=18.8x    frame=18102 fps=450 q=-0.0 size=N/A time=00:12:35.00 bitrate=N/A speed=18.8x    frame=18331 fps=450 q=-0.0 size=N/A time=00:12:44.55 bitrate=N/A speed=18.8x    frame=18593 fps=450 q=-0.0 size=N/A time=00:12:55.48 bitrate=N/A speed=18.8x    frame=18832 fps=451 q=-0.0 size=N/A time=00:13:05.45 bitrate=N/A speed=18.8x    frame=19085 fps=451 q=-0.0 size=N/A time=00:13:16.00 bitrate=N/A speed=18.8x    frame=19342 fps=452 q=-0.0 size=N/A time=00:13:26.72 bitrate=N/A speed=18.8x    frame=19577 fps=452 q=-0.0 size=N/A time=00:13:36.52 bitrate=N/A speed=18.8x    frame=19786 fps=451 q=-0.0 size=N/A time=00:13:45.24 bitrate=N/A speed=18.8x    frame=20027 fps=451 q=-0.0 size=N/A time=00:13:55.29 bitrate=N/A speed=18.8x    frame=20264 fps=452 q=-0.0 size=N/A time=00:14:05.17 bitrate=N/A speed=18.8x    frame=20546 fps=453 q=-0.0 size=N/A time=00:14:16.93 bitrate=N/A speed=18.9x    frame=20817 fps=453 q=-0.0 size=N/A time=00:14:28.24 bitrate=N/A speed=18.9x    frame=21082 fps=454 q=-0.0 size=N/A time=00:14:39.29 bitrate=N/A speed=18.9x    frame=21321 fps=454 q=-0.0 size=N/A time=00:14:49.26 bitrate=N/A speed=18.9x    frame=21555 fps=454 q=-0.0 size=N/A time=00:14:59.02 bitrate=N/A speed=18.9x    frame=21789 fps=454 q=-0.0 size=N/A time=00:15:08.78 bitrate=N/A speed=18.9x    frame=22056 fps=455 q=-0.0 size=N/A time=00:15:19.91 bitrate=N/A speed=  19x    frame=22318 fps=455 q=-0.0 size=N/A time=00:15:30.84 bitrate=N/A speed=  19x    frame=22574 fps=456 q=-0.0 size=N/A time=00:15:41.52 bitrate=N/A speed=  19x    frame=22850 fps=457 q=-0.0 size=N/A time=00:15:53.03 bitrate=N/A speed=  19x    frame=23095 fps=457 q=-0.0 size=N/A time=00:16:03.25 bitrate=N/A speed=19.1x    frame=23359 fps=457 q=-0.0 size=N/A time=00:16:14.26 bitrate=N/A speed=19.1x    frame=23588 fps=457 q=-0.0 size=N/A time=00:16:23.81 bitrate=N/A speed=19.1x    frame=23849 fps=458 q=-0.0 size=N/A time=00:16:34.70 bitrate=N/A speed=19.1x    frame=24107 fps=458 q=-0.0 size=N/A time=00:16:45.46 bitrate=N/A speed=19.1x    frame=24360 fps=459 q=-0.0 size=N/A time=00:16:56.01 bitrate=N/A speed=19.1x    frame=24595 fps=459 q=-0.0 size=N/A time=00:17:05.81 bitrate=N/A speed=19.1x    frame=24862 fps=459 q=-0.0 size=N/A time=00:17:16.95 bitrate=N/A speed=19.1x    frame=25103 fps=459 q=-0.0 size=N/A time=00:17:27.00 bitrate=N/A speed=19.2x    frame=25342 fps=459 q=-0.0 size=N/A time=00:17:36.97 bitrate=N/A speed=19.2x    frame=25548 fps=459 q=-0.0 size=N/A time=00:17:45.56 bitrate=N/A speed=19.1x    frame=25786 fps=459 q=-0.0 size=N/A time=00:17:55.49 bitrate=N/A speed=19.1x    frame=25996 fps=458 q=-0.0 size=N/A time=00:18:04.24 bitrate=N/A speed=19.1x    frame=26205 fps=458 q=-0.0 size=N/A time=00:18:12.96 bitrate=N/A speed=19.1x    frame=26420 fps=457 q=-0.0 size=N/A time=00:18:21.93 bitrate=N/A speed=19.1x    frame=26657 fps=457 q=-0.0 size=N/A time=00:18:31.81 bitrate=N/A speed=19.1x    frame=26923 fps=458 q=-0.0 size=N/A time=00:18:42.91 bitrate=N/A speed=19.1x    frame=27155 fps=458 q=-0.0 size=N/A time=00:18:52.58 bitrate=N/A speed=19.1x    frame=27368 fps=457 q=-0.0 size=N/A time=00:19:01.47 bitrate=N/A speed=19.1x    frame=27604 fps=457 q=-0.0 size=N/A time=00:19:11.31 bitrate=N/A speed=19.1x    frame=27844 fps=458 q=-0.0 size=N/A time=00:19:21.32 bitrate=N/A speed=19.1x    frame=28100 fps=458 q=-0.0 size=N/A time=00:19:32.00 bitrate=N/A speed=19.1x    frame=28327 fps=458 q=-0.0 size=N/A time=00:19:41.47 bitrate=N/A speed=19.1x    frame=28538 fps=457 q=-0.0 size=N/A time=00:19:50.27 bitrate=N/A speed=19.1x    frame=28801 fps=458 q=-0.0 size=N/A time=00:20:01.24 bitrate=N/A speed=19.1x    frame=29024 fps=457 q=-0.0 size=N/A time=00:20:10.54 bitrate=N/A speed=19.1x    frame=29266 fps=458 q=-0.0 size=N/A time=00:20:20.63 bitrate=N/A speed=19.1x    frame=29542 fps=458 q=-0.0 size=N/A time=00:20:32.14 bitrate=N/A speed=19.1x    frame=29810 fps=459 q=-0.0 size=N/A time=00:20:43.32 bitrate=N/A speed=19.1x    frame=30009 fps=458 q=-0.0 size=N/A time=00:20:51.62 bitrate=N/A speed=19.1x    frame=30162 fps=457 q=-0.0 size=N/A time=00:20:58.00 bitrate=N/A speed=19.1x    frame=30424 fps=457 q=-0.0 size=N/A time=00:21:08.93 bitrate=N/A speed=19.1x    frame=30695 fps=458 q=-0.0 size=N/A time=00:21:20.23 bitrate=N/A speed=19.1x    frame=30912 fps=457 q=-0.0 size=N/A time=00:21:29.28 bitrate=N/A speed=19.1x    frame=31176 fps=458 q=-0.0 size=N/A time=00:21:40.29 bitrate=N/A speed=19.1x    frame=31403 fps=458 q=-0.0 size=N/A time=00:21:49.76 bitrate=N/A speed=19.1x    frame=31635 fps=458 q=-0.0 size=N/A time=00:21:59.44 bitrate=N/A speed=19.1x    frame=31848 fps=457 q=-0.0 size=N/A time=00:22:08.32 bitrate=N/A speed=19.1x    frame=32084 fps=457 q=-0.0 size=N/A time=00:22:18.17 bitrate=N/A speed=19.1x    frame=32345 fps=458 q=-0.0 size=N/A time=00:22:29.05 bitrate=N/A speed=19.1x    frame=32595 fps=458 q=-0.0 size=N/A time=00:22:39.48 bitrate=N/A speed=19.1x    frame=32858 fps=458 q=-0.0 size=N/A time=00:22:50.45 bitrate=N/A speed=19.1x    frame=33110 fps=458 q=-0.0 size=N/A time=00:23:00.96 bitrate=N/A speed=19.1x    frame=33370 fps=459 q=-0.0 size=N/A time=00:23:11.80 bitrate=N/A speed=19.1x    frame=33616 fps=459 q=-0.0 size=N/A time=00:23:22.06 bitrate=N/A speed=19.1x    frame=33883 fps=459 q=-0.0 size=N/A time=00:23:33.20 bitrate=N/A speed=19.2x    frame=34140 fps=460 q=-0.0 size=N/A time=00:23:43.92 bitrate=N/A speed=19.2x    [Parsed_ssim_10 @ 00000253287a7cc0] SSIM Y:0.994940 (22.958273) U:0.992450 (21.220363) V:0.992610 (21.313630) All:0.994136 (22.318406)
[out#0/null @ 0000025325e24e00] video:14697KiB audio:267708KiB subtitle:0KiB other streams:0KiB global headers:0KiB muxing overhead: unknown
frame=34204 fps=460 q=-0.0 Lsize=N/A time=00:23:46.59 bitrate=N/A speed=19.2x    
